<?xml version="1.0" encoding="iso-8859-1"?>
<!-- Generator: Adobe Illustrator 19.0.0, SVG Export Plug-In . SVG Version: 6.00 Build 0)  -->
<svg version="1.1" id="Layer_1" xmlns="http://www.w3.org/2000/svg" xmlns:xlink="http://www.w3.org/1999/xlink" x="0px" y="0px"
	 viewBox="0 0 470.5 470.5" style="enable-background:new 0 0 470.5 470.5;" xml:space="preserve">
<g>
	<g id="XMLID_53_">
		<g>
			<path style="fill:#AFB6BB;" d="M450.793,153.469l-0.193,0.098H254.754v-74.26h153.863
				C427.529,100.502,442.082,125.738,450.793,153.469z"/>
			<path style="fill:#E7ECED;" d="M460.5,215.738H254.754v-62.172H450.6l0.193-0.098C457.137,173.078,460.5,194.061,460.5,215.738z"
				/>
			<path style="fill:#8C9093;" d="M408.617,79.307H254.754V10C315.949,10,370.994,36.832,408.617,79.307z"/>
			<path style="fill:#AFB6BB;" d="M215.738,20.191v205.854L70.297,371.486C33.07,334.26,10,282.869,10,226.045
				C10,112.375,102.186,20.191,215.738,20.191z"/>
			<path style="fill:#FFD248;" d="M249.117,254.752h205.844c0,113.572-92.186,205.748-205.844,205.748
				c-56.836,0-108.217-23.07-145.453-60.297L249.117,254.752z"/>
		</g>
		<g>
			<path style="fill:#231F20;" d="M460.333,150.472c-8.952-28.498-24.255-55.409-44.23-77.796C375.191,26.489,316.383,0,254.754,0
				c-5.523,0-10,4.477-10,10v205.738c0,5.522,4.477,10,10,10H460.5c5.522,0,10-4.478,10-10
				C470.5,193.283,467.07,171.297,460.333,150.472z M404.057,89.307c13.718,16.115,24.81,34.601,32.601,54.26H264.754v-54.26
				C264.754,89.307,404.057,89.307,404.057,89.307z M384.494,69.307h-119.74v-49.05C309.145,22.537,351.377,39.935,384.494,69.307z
				 M264.754,205.738v-42.172h178.629c3.832,13.652,6.141,27.772,6.866,42.172H264.754z"/>
			<path style="fill:#231F20;" d="M454.961,244.752H249.117c-2.652,0-5.195,1.054-7.071,2.929L96.593,393.132
				c-1.875,1.876-2.929,4.42-2.929,7.072s1.054,5.195,2.93,7.071c40.782,40.771,94.949,63.225,152.523,63.225
				c119.017,0,215.844-96.784,215.844-215.748C464.961,249.23,460.483,244.752,454.961,244.752z M249.117,450.5
				c-48.892,0-95.077-17.85-131.134-50.474l135.275-135.274h191.45C439.482,368.06,353.751,450.5,249.117,450.5z"/>
			<path style="fill:#231F20;" d="M225.738,226.045V20.191c0-5.523-4.478-10-10-10C96.78,10.191,0,107.022,0,226.045
				c0,57.577,22.454,111.74,63.226,152.513c1.876,1.875,4.419,2.929,7.071,2.929s5.195-1.054,7.071-2.929L222.81,233.116
				C224.685,231.24,225.738,228.697,225.738,226.045z M205.738,221.902L70.473,357.168C37.85,321.12,20,274.939,20,226.045
				C20,121.406,102.436,35.67,205.738,30.443V221.902z"/>
			<rect x="82.277" y="144.553" style="fill:#231F20;" width="89.014" height="20"/>
			<rect x="149.014" y="178.025" style="fill:#231F20;" width="22.277" height="20"/>
			<rect x="110.096" y="111.193" style="fill:#231F20;" width="61.195" height="20"/>
			<rect x="115.645" y="178.025" style="fill:#231F20;" width="22.277" height="20"/>
			<rect x="82.277" y="178.025" style="fill:#231F20;" width="22.277" height="20"/>
			<rect x="304.752" y="322.578" style="fill:#231F20;" width="22.277" height="20"/>
			<rect x="271.395" y="322.578" style="fill:#231F20;" width="22.277" height="20"/>
			<rect x="238.025" y="322.578" style="fill:#231F20;" width="22.277" height="20"/>
			<rect x="238.025" y="355.945" style="fill:#231F20;" width="116.832" height="20"/>
		</g>
	</g>
</g>
<g>
</g>
<g>
</g>
<g>
</g>
<g>
</g>
<g>
</g>
<g>
</g>
<g>
</g>
<g>
</g>
<g>
</g>
<g>
</g>
<g>
</g>
<g>
</g>
<g>
</g>
<g>
</g>
<g>
</g>
</svg>
