<?xml version="1.0" encoding="iso-8859-1"?>
<!-- Generator: Adobe Illustrator 18.0.0, SVG Export Plug-In . SVG Version: 6.00 Build 0)  -->
<!DOCTYPE svg PUBLIC "-//W3C//DTD SVG 1.1//EN" "http://www.w3.org/Graphics/SVG/1.1/DTD/svg11.dtd">
<svg version="1.1" id="Capa_1" xmlns="http://www.w3.org/2000/svg" xmlns:xlink="http://www.w3.org/1999/xlink" x="0px" y="0px"
	 viewBox="0 0 134 134" style="enable-background:new 0 0 134 134;" xml:space="preserve">
<g>
	<path style="fill:#FFEB97;" d="M6,92.814C6,101.188,12.812,108,21.185,108h91.63c8.373,0,15.185-6.813,15.185-15.186V71H6V92.814z
		 M19,78h69c1.657,0,3,1.343,3,3s-1.343,3-3,3H19c-1.657,0-3-1.343-3-3S17.343,78,19,78z M19,90h38c1.657,0,3,1.343,3,3
		s-1.343,3-3,3H19c-1.657,0-3-1.343-3-3S17.343,90,19,90z"/>
	<path style="fill:#94D5D2;" d="M6,65h122V43H6V65z M95,50h18c1.657,0,3,1.343,3,3s-1.343,3-3,3H95c-1.657,0-3-1.343-3-3
		S93.343,50,95,50z"/>
	<path style="fill:#FFEB97;" d="M112.815,26h-91.63C14.265,26,8.423,30.658,6.6,37h120.8C125.577,30.658,119.735,26,112.815,26z"/>
	<path style="fill:#586065;" d="M112.815,20h-91.63C9.503,20,0,29.504,0,41.186v51.629C0,104.496,9.503,114,21.185,114h91.63
		C124.497,114,134,104.496,134,92.814V68V41.186V40c0-0.249-0.039-0.487-0.097-0.719C132.936,28.489,123.853,20,112.815,20z
		 M21.185,26h91.63c6.92,0,12.762,4.658,14.585,11H6.6C8.423,30.658,14.265,26,21.185,26z M128,92.814
		c0,8.373-6.812,15.186-15.185,15.186h-91.63C12.812,108,6,101.188,6,92.814V71h122V92.814z M128,65H6V43h122V65z"/>
	<path style="fill:#586065;" d="M19,84h69c1.657,0,3-1.343,3-3s-1.343-3-3-3H19c-1.657,0-3,1.343-3,3S17.343,84,19,84z"/>
	<path style="fill:#586065;" d="M19,96h38c1.657,0,3-1.343,3-3s-1.343-3-3-3H19c-1.657,0-3,1.343-3,3S17.343,96,19,96z"/>
	<path style="fill:#586065;" d="M95,56h18c1.657,0,3-1.343,3-3s-1.343-3-3-3H95c-1.657,0-3,1.343-3,3S93.343,56,95,56z"/>
</g>
<g>
</g>
<g>
</g>
<g>
</g>
<g>
</g>
<g>
</g>
<g>
</g>
<g>
</g>
<g>
</g>
<g>
</g>
<g>
</g>
<g>
</g>
<g>
</g>
<g>
</g>
<g>
</g>
<g>
</g>
</svg>
