<?xml version="1.0" encoding="iso-8859-1"?>
<!-- Generator: Adobe Illustrator 19.0.0, SVG Export Plug-In . SVG Version: 6.00 Build 0)  -->
<svg version="1.1" id="Capa_1" xmlns="http://www.w3.org/2000/svg" xmlns:xlink="http://www.w3.org/1999/xlink" x="0px" y="0px"
	 viewBox="0 0 360 360" style="enable-background:new 0 0 360 360;" xml:space="preserve">
<g id="XMLID_2189_">
	<path id="XMLID_2190_" style="fill:#FFDA44;" d="M226.055,69.498C228.595,63.507,230,56.918,230,50c0-27.615-22.387-50-50-50
		s-50,22.385-50,50c0,6.918,1.405,13.507,3.945,19.498c14.511-3.845,29.986-5.925,46.055-5.925S211.544,65.653,226.055,69.498z"/>
	<path id="XMLID_2191_" style="fill:#FF5023;" d="M70.397,270.895L110,360h50v-31.904c6.486,1.246,13.169,1.902,20,1.902
		c6.83,0,13.514-0.656,20-1.902V360h50l39.602-89.104C262.227,294.955,223.256,310,180,310
		C136.745,310,97.773,294.955,70.397,270.895z"/>
	<path id="XMLID_2192_" style="fill:#FFB9A7;" d="M179.898,269.998C147.419,269.949,120,247.075,120,220.001
		c0-27.066,27.402-49.933,59.867-49.995c0.007-55.533,0.052-106.433,0.133-106.433c-16.068,0-31.544,2.08-46.055,5.925
		c-4.83,1.279-9.554,2.755-14.157,4.414C92.914,52.86,58.426,50,58.426,50c-20.055,26.74-19.255,64.68-15.816,87.283
		C34.507,152.436,30,169.178,30,186.787c0,32.518,15.343,62.088,40.397,84.107C97.773,294.955,136.745,310,180,310
		C179.954,310,179.92,293.928,179.898,269.998z M115,160c8.284,0,15,6.717,15,15s-6.716,15-15,15s-15-6.717-15-15
		S106.716,160,115,160z"/>
	<path id="XMLID_2195_" style="fill:#FF967B;" d="M330,186.787c0-17.609-4.507-34.352-12.609-49.503
		c3.439-22.604,4.24-60.544-15.816-87.284c0,0-34.487,2.86-61.363,23.912c-4.603-1.659-9.326-3.135-14.156-4.414
		c-14.511-3.845-29.986-5.925-46.055-5.925c-0.081,0-0.126,50.9-0.133,106.433c0.044,0,0.088-0.003,0.133-0.003
		c32.523,0,60,22.896,60,49.998C240,247.104,212.523,270,180,270c-0.034,0-0.068-0.002-0.102-0.002
		C179.92,293.928,179.954,310,180,310c43.256,0,82.227-15.045,109.602-39.104C314.656,248.876,330,219.306,330,186.787z M230,175
		c0-8.283,6.716-15,15-15s15,6.717,15,15s-6.716,15-15,15S230,183.283,230,175z"/>
	<path id="XMLID_2198_" style="fill:#FF5023;" d="M120,220.001c0,27.074,27.419,49.948,59.898,49.997
		c0.034,0,0.068,0.002,0.102,0.002c32.523,0,60-22.896,60-49.999c0-27.103-27.477-49.998-60-49.998
		c-0.044,0-0.088,0.003-0.133,0.003C147.402,170.068,120,192.936,120,220.001z M205,205.001c8.284,0,15,6.716,15,15
		c0,8.284-6.716,15-15,15s-15-6.716-15-15C190,211.717,196.716,205.001,205,205.001z M155,205.001c8.284,0,15,6.716,15,15
		c0,8.284-6.716,15-15,15s-15-6.716-15-15C140,211.717,146.716,205.001,155,205.001z"/>
	<circle id="XMLID_2202_" style="fill:#BF3C1A;" cx="155" cy="220.001" r="15"/>
	<circle id="XMLID_2203_" style="fill:#BF3C1A;" cx="205" cy="220.001" r="15"/>
	<circle id="XMLID_2204_" style="fill:#802812;" cx="115" cy="175" r="15"/>
	<circle id="XMLID_2205_" style="fill:#802812;" cx="245" cy="175" r="15"/>
</g>
<g>
</g>
<g>
</g>
<g>
</g>
<g>
</g>
<g>
</g>
<g>
</g>
<g>
</g>
<g>
</g>
<g>
</g>
<g>
</g>
<g>
</g>
<g>
</g>
<g>
</g>
<g>
</g>
<g>
</g>
</svg>
