<?xml version="1.0" encoding="iso-8859-1"?>
<!-- Generator: Adobe Illustrator 19.0.0, SVG Export Plug-In . SVG Version: 6.00 Build 0)  -->
<svg version="1.1" id="Layer_1" xmlns="http://www.w3.org/2000/svg" xmlns:xlink="http://www.w3.org/1999/xlink" x="0px" y="0px"
	 viewBox="0 0 392.792 392.792" style="enable-background:new 0 0 392.792 392.792;" xml:space="preserve">
<path style="fill:#FFC10D;" d="M196.46,91.475c19.265,0,34.844-15.58,34.844-34.844s-15.58-34.844-34.844-34.844
	s-34.844,15.58-34.844,34.844S177.196,91.475,196.46,91.475z"/>
<path style="fill:#56ACE0;" d="M309.721,257.293c-4.202-44.154-33.81-81.972-75.766-96.582l-27.604,59.733
	c-4.461,8.986-16.097,7.887-19.782,0l-27.604-59.733c-41.956,14.61-71.628,52.493-75.83,96.582H309.721z"/>
<path style="fill:#FFFFFF;" d="M196.46,341.075c-8.21,0-14.804,6.659-14.804,14.869c0,8.21,6.659,14.869,14.804,14.869
	c8.21,0,14.869-6.659,14.869-14.869C211.329,347.733,204.67,341.075,196.46,341.075z"/>
<g>
	<path style="fill:#194F82;" d="M196.46,113.261c31.224,0,56.63-25.406,56.63-56.63S227.685,0,196.46,0s-56.63,25.406-56.63,56.63
		S165.236,113.261,196.46,113.261z M196.46,21.786c19.265,0,34.844,15.58,34.844,34.844s-15.58,34.844-34.844,34.844
		s-34.844-15.58-34.844-34.844S177.196,21.786,196.46,21.786z"/>
	<path style="fill:#194F82;" d="M381.866,345.018H231.434c-3.556-11.442-12.671-20.493-24.113-24.113v-41.826h113.842
		c6.012,0,10.925-4.848,10.925-10.925c0-61.737-41.632-115.653-101.301-131.297c-5.107-1.293-10.408,1.164-12.671,5.947
		l-21.657,46.998l-21.657-46.804c-2.263-4.784-7.564-7.37-12.671-5.947c-59.669,15.515-101.301,69.56-101.301,131.297
		c0,6.012,4.848,10.925,10.925,10.925H185.6v41.826c-11.442,3.556-20.493,12.671-24.113,24.113H11.054
		c-6.012,0-10.925,4.848-10.925,10.925c0,6.012,4.848,10.925,10.925,10.925h150.368c4.655,14.933,18.554,25.729,34.974,25.729
		c16.356,0,30.384-10.796,34.974-25.729h150.368c6.012,0,10.925-4.849,10.925-10.925
		C392.727,349.867,387.878,345.018,381.866,345.018z M196.46,370.747c-8.21,0-14.804-6.659-14.804-14.869
		c0-8.21,6.659-14.869,14.804-14.869c8.21,0,14.869,6.659,14.869,14.869C211.329,364.089,204.67,370.747,196.46,370.747z
		 M158.965,160.646l27.604,59.733c3.685,7.887,15.321,8.986,19.782,0l27.604-59.733c41.956,14.61,71.628,52.493,75.83,96.582H83.2
		C87.337,213.139,117.01,175.257,158.965,160.646z"/>
</g>
<g>
</g>
<g>
</g>
<g>
</g>
<g>
</g>
<g>
</g>
<g>
</g>
<g>
</g>
<g>
</g>
<g>
</g>
<g>
</g>
<g>
</g>
<g>
</g>
<g>
</g>
<g>
</g>
<g>
</g>
</svg>
